<svg width="292" height="284" viewBox="0 0 292 284" fill="none" xmlns="http://www.w3.org/2000/svg">
<rect width="292" height="284" fill="#202238"/>
<path d="M46.88 107.768C43.4667 107.768 40.288 107.149 37.344 105.912C34.4427 104.675 31.904 102.947 29.728 100.728C27.552 98.5093 25.8453 95.9067 24.608 92.92C23.4133 89.9333 22.816 86.6693 22.816 83.128C22.816 79.5867 23.4133 76.3227 24.608 73.336C25.8027 70.3067 27.488 67.704 29.664 65.528C31.84 63.3093 34.3787 61.6027 37.28 60.408C40.224 59.1707 43.424 58.552 46.88 58.552C50.336 58.552 53.4293 59.128 56.16 60.28C58.9333 61.432 61.28 62.968 63.2 64.888C65.12 66.808 66.4853 68.9413 67.296 71.288L58.528 75.512C57.7173 73.208 56.288 71.3093 54.24 69.816C52.2347 68.28 49.7813 67.512 46.88 67.512C44.064 67.512 41.5893 68.1733 39.456 69.496C37.3227 70.8187 35.6587 72.6533 34.464 75C33.312 77.304 32.736 80.0133 32.736 83.128C32.736 86.2427 33.312 88.9733 34.464 91.32C35.6587 93.6667 37.3227 95.5013 39.456 96.824C41.5893 98.1467 44.064 98.808 46.88 98.808C49.7813 98.808 52.2347 98.0613 54.24 96.568C56.288 95.032 57.7173 93.112 58.528 90.808L67.296 95.032C66.4853 97.3787 65.12 99.512 63.2 101.432C61.28 103.352 58.9333 104.888 56.16 106.04C53.4293 107.192 50.336 107.768 46.88 107.768ZM70.7175 107V58.552H80.3175V107H70.7175ZM101.935 107.768C98.2225 107.768 95.0012 106.957 92.2705 105.336C89.5398 103.672 87.4278 101.453 85.9345 98.68C84.4412 95.9067 83.6945 92.8347 83.6945 89.464C83.6945 85.9653 84.4625 82.8507 85.9985 80.12C87.5772 77.3893 89.6892 75.2347 92.3345 73.656C94.9798 72.0773 97.9665 71.288 101.295 71.288C104.068 71.288 106.521 71.736 108.655 72.632C110.788 73.4853 112.58 74.7013 114.031 76.28C115.524 77.8587 116.655 79.6933 117.423 81.784C118.191 83.832 118.575 86.072 118.575 88.504C118.575 89.1867 118.532 89.8693 118.447 90.552C118.404 91.192 118.297 91.7467 118.127 92.216H91.9505V85.176H112.687L108.143 88.504C108.569 86.6693 108.548 85.048 108.079 83.64C107.609 82.1893 106.777 81.0587 105.583 80.248C104.431 79.3947 103.001 78.968 101.295 78.968C99.6305 78.968 98.2012 79.3733 97.0065 80.184C95.8118 80.9947 94.9158 82.1893 94.3185 83.768C93.7212 85.3467 93.4865 87.2667 93.6145 89.528C93.4438 91.4907 93.6785 93.2187 94.3185 94.712C94.9585 96.2053 95.9398 97.3787 97.2625 98.232C98.5852 99.0427 100.185 99.448 102.063 99.448C103.769 99.448 105.22 99.1067 106.415 98.424C107.652 97.7413 108.612 96.8027 109.295 95.608L116.975 99.256C116.292 100.963 115.204 102.456 113.711 103.736C112.26 105.016 110.532 106.019 108.527 106.744C106.521 107.427 104.324 107.768 101.935 107.768ZM132.803 107.768C130.286 107.768 128.11 107.363 126.275 106.552C124.441 105.741 123.033 104.589 122.051 103.096C121.07 101.56 120.579 99.7467 120.579 97.656C120.579 95.6933 121.027 93.9653 121.923 92.472C122.819 90.936 124.185 89.656 126.019 88.632C127.897 87.608 130.222 86.8827 132.995 86.456L143.684 84.728V91.768L134.723 93.368C133.358 93.624 132.313 94.072 131.587 94.712C130.862 95.3093 130.499 96.184 130.499 97.336C130.499 98.4027 130.905 99.2347 131.715 99.832C132.526 100.429 133.529 100.728 134.723 100.728C136.302 100.728 137.689 100.387 138.883 99.704C140.078 99.0213 140.995 98.104 141.635 96.952C142.318 95.7573 142.66 94.456 142.66 93.048V83.96C142.66 82.6373 142.126 81.528 141.059 80.632C140.036 79.736 138.627 79.288 136.835 79.288C135.129 79.288 133.614 79.7573 132.291 80.696C131.011 81.6347 130.073 82.872 129.475 84.408L121.795 80.76C122.478 78.7973 123.566 77.112 125.059 75.704C126.553 74.296 128.345 73.208 130.435 72.44C132.526 71.672 134.809 71.288 137.283 71.288C140.227 71.288 142.83 71.8213 145.091 72.888C147.353 73.9547 149.102 75.448 150.34 77.368C151.619 79.2453 152.259 81.4427 152.259 83.96V107H143.299V101.368L145.476 100.984C144.452 102.52 143.321 103.8 142.083 104.824C140.846 105.805 139.459 106.531 137.924 107C136.387 107.512 134.681 107.768 132.803 107.768ZM157.06 107V72.056H166.02V80.44L165.38 79.224C166.148 76.28 167.407 74.296 169.156 73.272C170.948 72.2053 173.06 71.672 175.492 71.672H177.54V79.992H174.532C172.185 79.992 170.287 80.7173 168.836 82.168C167.385 83.576 166.66 85.5813 166.66 88.184V107H157.06ZM32.8 168V128.96H20.704V120.32H54.624V128.96H42.72V168H32.8ZM56.5925 168V119.552H66.1925V139.968L65.0405 138.432C65.8512 136.341 67.1525 134.805 68.9445 133.824C70.7792 132.8 72.9125 132.288 75.3445 132.288C77.9898 132.288 80.2938 132.843 82.2565 133.952C84.2618 135.061 85.8192 136.619 86.9285 138.624C88.0378 140.587 88.5925 142.891 88.5925 145.536V168H78.9925V147.584C78.9925 146.219 78.7152 145.045 78.1605 144.064C77.6485 143.083 76.9018 142.315 75.9205 141.76C74.9818 141.205 73.8725 140.928 72.5925 140.928C71.3552 140.928 70.2458 141.205 69.2645 141.76C68.2832 142.315 67.5152 143.083 66.9605 144.064C66.4485 145.045 66.1925 146.219 66.1925 147.584V168H56.5925ZM109.497 168.768C105.785 168.768 102.564 167.957 99.833 166.336C97.1023 164.672 94.9903 162.453 93.497 159.68C92.0037 156.907 91.257 153.835 91.257 150.464C91.257 146.965 92.025 143.851 93.561 141.12C95.1397 138.389 97.2517 136.235 99.897 134.656C102.542 133.077 105.529 132.288 108.857 132.288C111.63 132.288 114.084 132.736 116.217 133.632C118.35 134.485 120.142 135.701 121.593 137.28C123.086 138.859 124.217 140.693 124.985 142.784C125.753 144.832 126.137 147.072 126.137 149.504C126.137 150.187 126.094 150.869 126.009 151.552C125.966 152.192 125.86 152.747 125.689 153.216H99.513V146.176H120.249L115.705 149.504C116.132 147.669 116.11 146.048 115.641 144.64C115.172 143.189 114.34 142.059 113.145 141.248C111.993 140.395 110.564 139.968 108.857 139.968C107.193 139.968 105.764 140.373 104.569 141.184C103.374 141.995 102.478 143.189 101.881 144.768C101.284 146.347 101.049 148.267 101.177 150.528C101.006 152.491 101.241 154.219 101.881 155.712C102.521 157.205 103.502 158.379 104.825 159.232C106.148 160.043 107.748 160.448 109.625 160.448C111.332 160.448 112.782 160.107 113.977 159.424C115.214 158.741 116.174 157.803 116.857 156.608L124.537 160.256C123.854 161.963 122.766 163.456 121.273 164.736C119.822 166.016 118.094 167.019 116.089 167.744C114.084 168.427 111.886 168.768 109.497 168.768ZM24.224 229V181.32H44.384C47.6693 181.32 50.4853 181.875 52.832 182.984C55.1787 184.093 56.9707 185.693 58.208 187.784C59.4453 189.832 60.064 192.328 60.064 195.272C60.064 197.363 59.488 199.368 58.336 201.288C57.184 203.165 55.2853 204.744 52.64 206.024V201.16C55.1573 202.141 57.0987 203.315 58.464 204.68C59.8293 206.045 60.768 207.539 61.28 209.16C61.792 210.739 62.048 212.403 62.048 214.152C62.048 218.845 60.4907 222.493 57.376 225.096C54.2613 227.699 49.9307 229 44.384 229H24.224ZM34.144 220.36H45.536C47.5413 220.36 49.1413 219.784 50.336 218.632C51.5307 217.48 52.128 215.987 52.128 214.152C52.128 212.275 51.5307 210.76 50.336 209.608C49.1413 208.456 47.5413 207.88 45.536 207.88H34.144V220.36ZM34.144 199.24H45.088C46.624 199.24 47.84 198.813 48.736 197.96C49.6747 197.064 50.144 195.891 50.144 194.44C50.144 192.989 49.6747 191.837 48.736 190.984C47.84 190.088 46.624 189.64 45.088 189.64H34.144V199.24ZM82.2995 229.768C78.5875 229.768 75.3662 228.957 72.6355 227.336C69.9048 225.672 67.7928 223.453 66.2995 220.68C64.8062 217.907 64.0595 214.835 64.0595 211.464C64.0595 207.965 64.8275 204.851 66.3635 202.12C67.9422 199.389 70.0542 197.235 72.6995 195.656C75.3448 194.077 78.3315 193.288 81.6595 193.288C84.4328 193.288 86.8862 193.736 89.0195 194.632C91.1528 195.485 92.9448 196.701 94.3955 198.28C95.8888 199.859 97.0195 201.693 97.7875 203.784C98.5555 205.832 98.9395 208.072 98.9395 210.504C98.9395 211.187 98.8968 211.869 98.8115 212.552C98.7688 213.192 98.6622 213.747 98.4915 214.216H72.3155V207.176H93.0515L88.5075 210.504C88.9342 208.669 88.9128 207.048 88.4435 205.64C87.9742 204.189 87.1422 203.059 85.9475 202.248C84.7955 201.395 83.3662 200.968 81.6595 200.968C79.9955 200.968 78.5662 201.373 77.3715 202.184C76.1768 202.995 75.2808 204.189 74.6835 205.768C74.0862 207.347 73.8515 209.267 73.9795 211.528C73.8088 213.491 74.0435 215.219 74.6835 216.712C75.3235 218.205 76.3048 219.379 77.6275 220.232C78.9502 221.043 80.5502 221.448 82.4275 221.448C84.1342 221.448 85.5848 221.107 86.7795 220.424C88.0168 219.741 88.9768 218.803 89.6595 217.608L97.3395 221.256C96.6568 222.963 95.5688 224.456 94.0755 225.736C92.6248 227.016 90.8968 228.019 88.8915 228.744C86.8862 229.427 84.6888 229.768 82.2995 229.768ZM102.352 229V194.056H111.312V200.968L110.8 199.432C111.611 197.341 112.912 195.805 114.704 194.824C116.539 193.8 118.672 193.288 121.104 193.288C123.75 193.288 126.054 193.843 128.016 194.952C130.022 196.061 131.579 197.619 132.688 199.624C133.798 201.587 134.352 203.891 134.352 206.536V229H124.752V208.584C124.752 207.219 124.475 206.045 123.92 205.064C123.408 204.083 122.662 203.315 121.68 202.76C120.742 202.205 119.632 201.928 118.352 201.928C117.115 201.928 116.006 202.205 115.024 202.76C114.043 203.315 113.275 204.083 112.72 205.064C112.208 206.045 111.952 207.219 111.952 208.584V229H102.352ZM155.577 229.768C152.078 229.768 148.921 228.979 146.105 227.4C143.332 225.779 141.113 223.581 139.449 220.808C137.828 218.035 137.017 214.92 137.017 211.464C137.017 208.008 137.828 204.915 139.449 202.184C141.07 199.411 143.289 197.235 146.105 195.656C148.921 194.077 152.078 193.288 155.577 193.288C158.18 193.288 160.59 193.736 162.809 194.632C165.028 195.528 166.926 196.787 168.505 198.408C170.084 199.987 171.214 201.864 171.897 204.04L163.577 207.624C162.98 205.875 161.956 204.488 160.505 203.464C159.097 202.44 157.454 201.928 155.577 201.928C153.913 201.928 152.42 202.333 151.097 203.144C149.817 203.955 148.793 205.085 148.025 206.536C147.3 207.987 146.937 209.651 146.937 211.528C146.937 213.405 147.3 215.069 148.025 216.52C148.793 217.971 149.817 219.101 151.097 219.912C152.42 220.723 153.913 221.128 155.577 221.128C157.497 221.128 159.161 220.616 160.569 219.592C161.977 218.568 162.98 217.181 163.577 215.432L171.897 219.08C171.257 221.128 170.148 222.963 168.569 224.584C166.99 226.205 165.092 227.485 162.873 228.424C160.654 229.32 158.222 229.768 155.577 229.768ZM175.31 229V180.552H184.91V200.968L183.758 199.432C184.569 197.341 185.87 195.805 187.662 194.824C189.497 193.8 191.63 193.288 194.062 193.288C196.707 193.288 199.011 193.843 200.974 194.952C202.979 196.061 204.537 197.619 205.646 199.624C206.755 201.587 207.31 203.891 207.31 206.536V229H197.71V208.584C197.71 207.219 197.433 206.045 196.878 205.064C196.366 204.083 195.619 203.315 194.638 202.76C193.699 202.205 192.59 201.928 191.31 201.928C190.073 201.928 188.963 202.205 187.982 202.76C187.001 203.315 186.233 204.083 185.678 205.064C185.166 206.045 184.91 207.219 184.91 208.584V229H175.31Z" fill="#FFFCF1"/>
</svg>
