<svg width="706" height="160" viewBox="0 0 706 160" fill="none" xmlns="http://www.w3.org/2000/svg">
<path d="M40.32 155.152C35.2 155.152 30.432 154.224 26.016 152.368C21.664 150.512 17.856 147.92 14.592 144.592C11.328 141.264 8.768 137.36 6.912 132.88C5.12 128.4 4.224 123.504 4.224 118.192C4.224 112.88 5.12 107.984 6.912 103.504C8.704 98.96 11.232 95.056 14.496 91.792C17.76 88.464 21.568 85.904 25.92 84.112C30.336 82.256 35.136 81.328 40.32 81.328C45.504 81.328 50.144 82.192 54.24 83.92C58.4 85.648 61.92 87.952 64.8 90.832C67.68 93.712 69.728 96.912 70.944 100.432L57.792 106.768C56.576 103.312 54.432 100.464 51.36 98.224C48.352 95.92 44.672 94.768 40.32 94.768C36.096 94.768 32.384 95.76 29.184 97.744C25.984 99.728 23.488 102.48 21.696 106C19.968 109.456 19.104 113.52 19.104 118.192C19.104 122.864 19.968 126.96 21.696 130.48C23.488 134 25.984 136.752 29.184 138.736C32.384 140.72 36.096 141.712 40.32 141.712C44.672 141.712 48.352 140.592 51.36 138.352C54.432 136.048 56.576 133.168 57.792 129.712L70.944 136.048C69.728 139.568 67.68 142.768 64.8 145.648C61.92 148.528 58.4 150.832 54.24 152.56C50.144 154.288 45.504 155.152 40.32 155.152ZM76.0762 154V81.328H90.4763V154H76.0762ZM122.902 155.152C117.334 155.152 112.502 153.936 108.406 151.504C104.31 149.008 101.142 145.68 98.9017 141.52C96.6617 137.36 95.5417 132.752 95.5417 127.696C95.5417 122.448 96.6937 117.776 98.9977 113.68C101.366 109.584 104.534 106.352 108.502 103.984C112.47 101.616 116.95 100.432 121.942 100.432C126.102 100.432 129.782 101.104 132.982 102.448C136.182 103.728 138.87 105.552 141.046 107.92C143.286 110.288 144.982 113.04 146.134 116.176C147.286 119.248 147.862 122.608 147.862 126.256C147.862 127.28 147.798 128.304 147.67 129.328C147.606 130.288 147.446 131.12 147.19 131.824H107.926V121.264H139.03L132.214 126.256C132.854 123.504 132.822 121.072 132.118 118.96C131.414 116.784 130.166 115.088 128.374 113.872C126.646 112.592 124.502 111.952 121.942 111.952C119.446 111.952 117.302 112.56 115.51 113.776C113.718 114.992 112.374 116.784 111.478 119.152C110.582 121.52 110.23 124.4 110.422 127.792C110.166 130.736 110.518 133.328 111.478 135.568C112.438 137.808 113.91 139.568 115.894 140.848C117.878 142.064 120.278 142.672 123.094 142.672C125.654 142.672 127.83 142.16 129.622 141.136C131.478 140.112 132.918 138.704 133.942 136.912L145.462 142.384C144.438 144.944 142.806 147.184 140.566 149.104C138.39 151.024 135.798 152.528 132.79 153.616C129.782 154.64 126.486 155.152 122.902 155.152ZM169.205 155.152C165.429 155.152 162.165 154.544 159.413 153.328C156.661 152.112 154.549 150.384 153.077 148.144C151.605 145.84 150.869 143.12 150.869 139.984C150.869 137.04 151.541 134.448 152.885 132.208C154.229 129.904 156.277 127.984 159.029 126.448C161.845 124.912 165.333 123.824 169.493 123.184L185.525 120.592V131.152L172.085 133.552C170.037 133.936 168.469 134.608 167.381 135.568C166.293 136.464 165.749 137.776 165.749 139.504C165.749 141.104 166.357 142.352 167.573 143.248C168.789 144.144 170.293 144.592 172.085 144.592C174.453 144.592 176.533 144.08 178.325 143.056C180.117 142.032 181.493 140.656 182.453 138.928C183.477 137.136 183.989 135.184 183.989 133.072V119.44C183.989 117.456 183.189 115.792 181.589 114.448C180.053 113.104 177.941 112.432 175.253 112.432C172.693 112.432 170.421 113.136 168.437 114.544C166.517 115.952 165.109 117.808 164.213 120.112L152.693 114.64C153.717 111.696 155.349 109.168 157.589 107.056C159.829 104.944 162.517 103.312 165.653 102.16C168.789 101.008 172.213 100.432 175.925 100.432C180.341 100.432 184.245 101.232 187.637 102.832C191.029 104.432 193.653 106.672 195.509 109.552C197.429 112.368 198.389 115.664 198.389 119.44V154H184.949V145.552L188.213 144.976C186.677 147.28 184.981 149.2 183.125 150.736C181.269 152.208 179.189 153.296 176.885 154C174.581 154.768 172.021 155.152 169.205 155.152ZM205.59 154V101.584H219.03V114.16L218.07 112.336C219.222 107.92 221.11 104.944 223.734 103.408C226.422 101.808 229.59 101.008 233.238 101.008H236.31V113.488H231.798C228.278 113.488 225.43 114.576 223.254 116.752C221.078 118.864 219.99 121.872 219.99 125.776V154H205.59ZM267.071 154V95.44H248.927V82.48H299.807V95.44H281.951V154H267.071ZM302.76 154V81.328H317.16V111.952L315.432 109.648C316.648 106.512 318.6 104.208 321.288 102.736C324.04 101.2 327.24 100.432 330.888 100.432C334.856 100.432 338.312 101.264 341.256 102.928C344.264 104.592 346.6 106.928 348.264 109.936C349.928 112.88 350.76 116.336 350.76 120.304V154H336.36V123.376C336.36 121.328 335.944 119.568 335.112 118.096C334.344 116.624 333.224 115.472 331.752 114.64C330.344 113.808 328.68 113.392 326.76 113.392C324.904 113.392 323.24 113.808 321.768 114.64C320.296 115.472 319.144 116.624 318.312 118.096C317.544 119.568 317.16 121.328 317.16 123.376V154H302.76ZM382.117 155.152C376.549 155.152 371.717 153.936 367.621 151.504C363.525 149.008 360.357 145.68 358.117 141.52C355.877 137.36 354.757 132.752 354.757 127.696C354.757 122.448 355.909 117.776 358.213 113.68C360.581 109.584 363.749 106.352 367.717 103.984C371.685 101.616 376.165 100.432 381.157 100.432C385.317 100.432 388.997 101.104 392.197 102.448C395.397 103.728 398.085 105.552 400.261 107.92C402.501 110.288 404.197 113.04 405.349 116.176C406.501 119.248 407.077 122.608 407.077 126.256C407.077 127.28 407.013 128.304 406.885 129.328C406.821 130.288 406.661 131.12 406.405 131.824H367.141V121.264H398.245L391.429 126.256C392.069 123.504 392.037 121.072 391.333 118.96C390.629 116.784 389.381 115.088 387.589 113.872C385.861 112.592 383.717 111.952 381.157 111.952C378.661 111.952 376.517 112.56 374.725 113.776C372.933 114.992 371.589 116.784 370.693 119.152C369.797 121.52 369.445 124.4 369.637 127.792C369.381 130.736 369.733 133.328 370.693 135.568C371.653 137.808 373.125 139.568 375.109 140.848C377.093 142.064 379.493 142.672 382.309 142.672C384.869 142.672 387.045 142.16 388.837 141.136C390.693 140.112 392.133 138.704 393.157 136.912L404.677 142.384C403.653 144.944 402.021 147.184 399.781 149.104C397.605 151.024 395.013 152.528 392.005 153.616C388.997 154.64 385.701 155.152 382.117 155.152ZM427.142 154V82.48H457.382C462.31 82.48 466.534 83.312 470.054 84.976C473.574 86.64 476.262 89.04 478.118 92.176C479.974 95.248 480.902 98.992 480.902 103.408C480.902 106.544 480.038 109.552 478.31 112.432C476.582 115.248 473.734 117.616 469.766 119.536V112.24C473.542 113.712 476.454 115.472 478.502 117.52C480.55 119.568 481.958 121.808 482.726 124.24C483.494 126.608 483.878 129.104 483.878 131.728C483.878 138.768 481.542 144.24 476.87 148.144C472.198 152.048 465.702 154 457.382 154H427.142ZM442.022 141.04H459.11C462.118 141.04 464.518 140.176 466.31 138.448C468.102 136.72 468.998 134.48 468.998 131.728C468.998 128.912 468.102 126.64 466.31 124.912C464.518 123.184 462.118 122.32 459.11 122.32H442.022V141.04ZM442.022 109.36H458.438C460.742 109.36 462.566 108.72 463.91 107.44C465.318 106.096 466.022 104.336 466.022 102.16C466.022 99.984 465.318 98.256 463.91 96.976C462.566 95.632 460.742 94.96 458.438 94.96H442.022V109.36ZM514.256 155.152C508.688 155.152 503.856 153.936 499.76 151.504C495.664 149.008 492.496 145.68 490.256 141.52C488.016 137.36 486.896 132.752 486.896 127.696C486.896 122.448 488.048 117.776 490.352 113.68C492.72 109.584 495.888 106.352 499.856 103.984C503.824 101.616 508.304 100.432 513.296 100.432C517.456 100.432 521.136 101.104 524.336 102.448C527.536 103.728 530.224 105.552 532.4 107.92C534.64 110.288 536.336 113.04 537.488 116.176C538.64 119.248 539.216 122.608 539.216 126.256C539.216 127.28 539.152 128.304 539.024 129.328C538.96 130.288 538.8 131.12 538.544 131.824H499.28V121.264H530.384L523.568 126.256C524.208 123.504 524.176 121.072 523.472 118.96C522.768 116.784 521.52 115.088 519.728 113.872C518 112.592 515.856 111.952 513.296 111.952C510.8 111.952 508.656 112.56 506.864 113.776C505.072 114.992 503.728 116.784 502.832 119.152C501.936 121.52 501.584 124.4 501.776 127.792C501.52 130.736 501.872 133.328 502.832 135.568C503.792 137.808 505.264 139.568 507.248 140.848C509.232 142.064 511.632 142.672 514.448 142.672C517.008 142.672 519.184 142.16 520.976 141.136C522.832 140.112 524.272 138.704 525.296 136.912L536.816 142.384C535.792 144.944 534.16 147.184 531.92 149.104C529.744 151.024 527.152 152.528 524.144 153.616C521.136 154.64 517.84 155.152 514.256 155.152ZM544.335 154V101.584H557.775V111.952L557.007 109.648C558.223 106.512 560.175 104.208 562.863 102.736C565.615 101.2 568.815 100.432 572.463 100.432C576.431 100.432 579.887 101.264 582.831 102.928C585.839 104.592 588.175 106.928 589.839 109.936C591.503 112.88 592.335 116.336 592.335 120.304V154H577.935V123.376C577.935 121.328 577.519 119.568 576.687 118.096C575.919 116.624 574.799 115.472 573.327 114.64C571.919 113.808 570.255 113.392 568.335 113.392C566.479 113.392 564.815 113.808 563.343 114.64C561.871 115.472 560.719 116.624 559.887 118.096C559.119 119.568 558.735 121.328 558.735 123.376V154H544.335ZM624.172 155.152C618.924 155.152 614.188 153.968 609.964 151.6C605.804 149.168 602.476 145.872 599.98 141.712C597.548 137.552 596.332 132.88 596.332 127.696C596.332 122.512 597.548 117.872 599.98 113.776C602.412 109.616 605.74 106.352 609.964 103.984C614.188 101.616 618.924 100.432 624.172 100.432C628.076 100.432 631.692 101.104 635.02 102.448C638.348 103.792 641.196 105.68 643.564 108.112C645.932 110.48 647.628 113.296 648.652 116.56L636.172 121.936C635.276 119.312 633.74 117.232 631.564 115.696C629.452 114.16 626.988 113.392 624.172 113.392C621.676 113.392 619.436 114 617.452 115.216C615.532 116.432 613.996 118.128 612.844 120.304C611.756 122.48 611.212 124.976 611.212 127.792C611.212 130.608 611.756 133.104 612.844 135.28C613.996 137.456 615.532 139.152 617.452 140.368C619.436 141.584 621.676 142.192 624.172 142.192C627.052 142.192 629.548 141.424 631.66 139.888C633.772 138.352 635.276 136.272 636.172 133.648L648.652 139.12C647.692 142.192 646.028 144.944 643.66 147.376C641.292 149.808 638.444 151.728 635.116 153.136C631.788 154.48 628.14 155.152 624.172 155.152ZM653.771 154V81.328H668.171V111.952L666.443 109.648C667.659 106.512 669.611 104.208 672.299 102.736C675.051 101.2 678.251 100.432 681.899 100.432C685.867 100.432 689.323 101.264 692.267 102.928C695.275 104.592 697.611 106.928 699.275 109.936C700.939 112.88 701.771 116.336 701.771 120.304V154H687.371V123.376C687.371 121.328 686.955 119.568 686.123 118.096C685.355 116.624 684.235 115.472 682.763 114.64C681.355 113.808 679.691 113.392 677.771 113.392C675.915 113.392 674.251 113.808 672.779 114.64C671.307 115.472 670.155 116.624 669.323 118.096C668.555 119.568 668.171 121.328 668.171 123.376V154H653.771Z" fill="#202238"/>
<path d="M320.665 9.17221C315.729 9.17222 308.598 14.5922 308.598 14.5922C308.598 14.5922 314.266 10.8399 325.054 24.3897C335.841 37.9396 325.054 54.1994 325.054 54.1994C340.704 44.6937 343.337 29.1843 342.057 26.4743C340.777 23.7644 325.602 9.1722 320.665 9.17221Z" fill="#202238"/>
<path fill-rule="evenodd" clip-rule="evenodd" d="M317.474 13.0705C320.371 14.7697 323.712 17.6849 327.5 22.4422C333.298 29.7246 333.608 37.685 332.406 43.864C334.482 41.3757 335.993 38.8396 337.057 36.4954C338.175 34.0357 338.787 31.8169 339.052 30.128C339.185 29.2809 339.224 28.6119 339.21 28.1425C339.205 27.9475 339.191 27.8181 339.181 27.7431C339.1 27.6267 338.917 27.371 338.568 26.9513C338.084 26.3688 337.422 25.6345 336.614 24.7935C335.001 23.1146 332.897 21.0998 330.677 19.1635C328.448 17.2194 326.165 15.4089 324.188 14.1043C323.198 13.4506 322.344 12.9641 321.656 12.6514C321.039 12.3712 320.733 12.3137 320.672 12.302C320.658 12.2994 320.656 12.2991 320.665 12.2991C319.799 12.2991 318.691 12.5884 317.474 13.0705ZM322.454 52.477L326.677 56.872C335.102 51.755 340.069 44.9882 342.751 39.0815C344.089 36.1369 344.873 33.3761 345.23 31.0978C345.409 29.9613 345.488 28.8997 345.462 27.9651C345.438 27.1145 345.32 26.0617 344.885 25.139C344.537 24.4033 343.922 23.6084 343.378 22.9544C342.768 22.2201 341.996 21.3698 341.124 20.4617C339.377 18.6424 337.139 16.501 334.788 14.4505C332.446 12.4079 329.93 10.401 327.633 8.88484C326.487 8.1282 325.334 7.45353 324.243 6.95764C323.216 6.49097 321.951 6.04532 320.665 6.04532C317.31 6.04533 313.666 7.79109 311.243 9.15935C309.948 9.89079 308.826 10.618 308.029 11.1613C307.628 11.4341 307.306 11.6631 307.08 11.8268C306.967 11.9087 306.878 11.9745 306.815 12.0213C306.783 12.0447 306.758 12.0634 306.74 12.0771L306.718 12.0938L306.711 12.0993L306.707 12.1021C306.706 12.1024 306.706 12.1027 308.598 14.5921L306.706 12.1027L310.254 17.1008C310.32 17.2023 310.319 17.203 310.318 17.2037L310.312 17.2078L310.299 17.2159C310.291 17.2211 310.283 17.2262 310.276 17.231C310.26 17.2406 310.246 17.2493 310.233 17.2573C310.207 17.2732 310.185 17.2859 310.166 17.2959C310.13 17.3159 310.109 17.3252 310.104 17.3274C310.103 17.3278 310.103 17.328 310.103 17.328C310.103 17.328 310.157 17.3055 310.266 17.2837C310.487 17.2394 311.041 17.1758 311.956 17.426C313.829 17.9378 317.428 19.8312 322.607 26.3373C327.206 32.1137 327.27 38.4727 326.054 43.6629C325.446 46.2605 324.528 48.4944 323.758 50.0816C323.374 50.8712 323.032 51.4904 322.793 51.9025C322.673 52.1084 322.579 52.2618 322.519 52.3582C322.489 52.4063 322.468 52.4402 322.455 52.4592L322.447 52.4727C322.447 52.4726 322.447 52.4724 322.454 52.477Z" fill="#202238"/>
<path d="M385.932 9.17221C391.136 9.17222 398.653 14.5922 398.653 14.5922C398.653 14.5922 392.678 10.8399 381.306 24.3897C369.934 37.9396 381.306 54.1994 381.306 54.1994C364.808 44.6937 362.032 29.1843 363.381 26.4743C364.73 23.7644 380.728 9.1722 385.932 9.17221Z" fill="#202238"/>
<path fill-rule="evenodd" clip-rule="evenodd" d="M389.371 13.0757C386.364 14.7635 382.876 17.6545 378.911 22.3796C372.658 29.8302 372.441 38.0201 373.812 44.2924C371.391 41.6437 369.663 38.9278 368.471 36.4381C367.296 33.9845 366.655 31.7764 366.378 30.1024C366.239 29.2625 366.199 28.604 366.213 28.1473C366.218 27.9813 366.229 27.8659 366.239 27.7934C366.327 27.6731 366.52 27.4203 366.876 27.0132C367.387 26.4296 368.087 25.6942 368.94 24.8522C370.641 23.1715 372.861 21.1547 375.204 19.2162C377.556 17.2705 379.969 15.4552 382.062 14.1449C383.11 13.4885 384.02 12.9956 384.762 12.6761C385.129 12.5175 385.421 12.4167 385.641 12.3581C385.845 12.3039 385.936 12.2994 385.936 12.2991C385.936 12.2991 385.934 12.2991 385.932 12.2991C386.885 12.2991 388.079 12.5932 389.371 13.0757ZM383.862 52.4138L379.745 56.9088C370.901 51.8135 365.667 45.062 362.831 39.1388C361.418 36.1881 360.587 33.4166 360.208 31.1234C360.019 29.9797 359.934 28.9076 359.962 27.9603C359.988 27.0982 360.113 26.0224 360.582 25.0807C360.951 24.3392 361.602 23.5435 362.172 22.8924C362.814 22.1593 363.626 21.3101 364.545 20.403C366.385 18.5855 368.742 16.4461 371.218 14.3979C373.685 12.3567 376.331 10.3546 378.743 8.84427C379.948 8.09027 381.152 7.42204 382.286 6.93294C383.362 6.46963 384.646 6.04532 385.932 6.04532C389.377 6.04533 393.159 7.75409 395.72 9.1258C397.079 9.8537 398.257 10.5778 399.094 11.1193C399.515 11.391 399.853 11.6192 400.09 11.782C400.209 11.8636 400.302 11.9289 400.368 11.9754C400.401 11.9986 400.427 12.0172 400.446 12.0307L400.469 12.0472L400.477 12.0525L400.48 12.0552C400.481 12.0555 400.481 12.0558 398.653 14.5921L400.481 12.0558L397.057 17.1401C396.994 17.2428 396.995 17.2435 396.996 17.2442L397.002 17.2481L397.014 17.2556C397.022 17.2605 397.03 17.2652 397.038 17.2697C397.052 17.2786 397.066 17.2867 397.079 17.2939C397.104 17.3084 397.125 17.3197 397.141 17.3282C397.174 17.3452 397.189 17.3513 397.187 17.3503C397.183 17.3486 397.107 17.3178 396.958 17.2896C396.675 17.2359 396.04 17.1743 395.028 17.4366C392.975 17.9689 389.156 19.9007 383.701 26.3999C378.863 32.1647 378.806 38.4773 380.077 43.6264C380.716 46.2118 381.68 48.4381 382.491 50.0226C382.894 50.8107 383.253 51.4287 383.506 51.8402C383.632 52.0457 383.73 52.1989 383.794 52.2951C383.825 52.3432 383.848 52.377 383.861 52.3959L383.87 52.4093C383.87 52.4092 383.87 52.409 383.862 52.4138Z" fill="#202238"/>
<path d="M372.225 13.1329C355.697 1.79273 339.498 8.68578 333.464 13.5498L342.057 31.6858C342.057 31.6858 348.365 25.0795 352.845 25.2236C356.452 25.3396 361.987 29.8097 361.987 29.8097L372.225 13.1329Z" fill="#202238"/>
<path fill-rule="evenodd" clip-rule="evenodd" d="M337.412 14.5803L343.08 26.5406C343.334 26.3347 343.598 26.1257 343.872 25.9165C345.033 25.0287 346.421 24.0866 347.892 23.3652C349.319 22.6651 351.092 22.0387 352.945 22.0983C354.402 22.1452 355.835 22.6093 357.016 23.1106C358.237 23.6284 359.413 24.2835 360.41 24.8991C360.639 25.0401 360.861 25.1807 361.074 25.3192L367.941 14.1345C355.401 6.99725 343.465 10.7853 337.412 14.5803ZM360.022 32.2423L360.018 32.2391C360.011 32.2339 360 32.2247 359.983 32.2117C359.951 32.1858 359.899 32.1449 359.829 32.0911C359.69 31.9836 359.482 31.8253 359.219 31.633C358.69 31.2462 357.956 30.7329 357.126 30.2212C356.289 29.7047 355.405 29.2205 354.573 28.8676C353.703 28.4981 353.091 28.36 352.744 28.3489C352.358 28.3364 351.662 28.4817 350.646 28.9799C349.674 29.4566 348.646 30.139 347.67 30.8848C346.705 31.6225 345.856 32.3726 345.246 32.942C344.943 33.2249 344.703 33.4588 344.543 33.6185C344.463 33.6982 344.403 33.7591 344.365 33.798C344.346 33.8175 344.332 33.8314 344.324 33.8394L344.319 33.8451L344.318 33.8458L344.318 33.8464L344.317 33.8468L341.179 37.1342L329.583 12.662L331.502 11.1155C338.208 5.70871 355.951 -1.82482 373.994 10.5546L376.445 12.2361L362.79 34.4777L360.024 32.244L360.023 32.2433L360.023 32.2428L360.022 32.2423Z" fill="#202238"/>
<path d="M361.987 10.2145C361.987 15.8558 357.975 20.429 353.028 20.429C348.08 20.429 344.069 15.8558 344.069 10.2145C344.069 4.57319 348.08 0 353.028 0C357.975 0 361.987 4.57319 361.987 10.2145Z" fill="#202238"/>
<path d="M342.369 39.6073C342.369 55.7253 329.302 68.7916 313.184 68.7916C297.066 68.7916 284 55.7253 284 39.6073C284 23.4892 297.066 10.423 313.184 10.423C329.302 10.423 342.369 23.4892 342.369 39.6073Z" fill="#202238"/>
<path d="M336.532 39.6073C336.532 52.5017 326.079 62.9547 313.184 62.9547C300.29 62.9547 289.837 52.5017 289.837 39.6073C289.837 26.7128 300.29 16.2598 313.184 16.2598C326.079 16.2598 336.532 26.7128 336.532 39.6073Z" fill="#FFA63E"/>
<path fill-rule="evenodd" clip-rule="evenodd" d="M321.473 28.5118C319.29 27.0989 316.73 26.7778 315.135 26.9226C313.415 27.0786 311.894 25.8109 311.738 24.091C311.582 22.3712 312.85 20.8504 314.569 20.6944C317.275 20.4489 321.296 20.9474 324.871 23.262C328.598 25.6742 331.552 29.879 332.141 36.4075C332.297 38.1274 331.028 39.6476 329.309 39.803C327.589 39.9584 326.068 38.6901 325.913 36.9702C325.487 32.2576 323.505 29.8271 321.473 28.5118Z" fill="white"/>
<path d="M422 39.8157C422 56.0489 408.84 69.2085 392.607 69.2085C376.374 69.2085 363.215 56.0489 363.215 39.8157C363.215 23.5826 376.374 10.423 392.607 10.423C408.84 10.423 422 23.5826 422 39.8157Z" fill="#202238"/>
<path d="M415.746 40.0242C415.746 52.9186 405.293 63.3716 392.399 63.3716C379.504 63.3716 369.051 52.9186 369.051 40.0242C369.051 27.1297 379.504 16.6767 392.399 16.6767C405.293 16.6767 415.746 27.1297 415.746 40.0242Z" fill="#FFA63E"/>
<path fill-rule="evenodd" clip-rule="evenodd" d="M398.713 28.2105C396.657 27.0703 394.204 26.7959 392.641 26.9174C390.919 27.0513 389.415 25.7641 389.281 24.0423C389.147 22.3206 390.435 20.8163 392.156 20.6825C394.642 20.4892 398.382 20.8758 401.746 22.7417C405.273 24.6977 408.256 28.2306 408.85 33.8595C409.031 35.5769 407.785 37.1159 406.068 37.297C404.351 37.478 402.812 36.2326 402.631 34.5152C402.268 31.0787 400.606 29.2605 398.713 28.2105Z" fill="white"/>
</svg>
